<?xml version="1.0" encoding="UTF-8" standalone="no"?>
<svg
   xmlns:dc="http://purl.org/dc/elements/1.1/"
   xmlns:cc="http://creativecommons.org/ns#"
   xmlns:rdf="http://www.w3.org/1999/02/22-rdf-syntax-ns#"
   xmlns:svg="http://www.w3.org/2000/svg"
   xmlns="http://www.w3.org/2000/svg"
   xmlns:sodipodi="http://sodipodi.sourceforge.net/DTD/sodipodi-0.dtd"
   xmlns:inkscape="http://www.inkscape.org/namespaces/inkscape"
   height="24"
   width="24"
   version="1.1"
   id="svg28"
   sodipodi:docname="github.svg"
   inkscape:version="0.92.5 (2060ec1f9f, 2020-04-08)">
  <metadata
     id="metadata34">
    <rdf:RDF>
      <cc:Work
         rdf:about="">
        <dc:format>image/svg+xml</dc:format>
        <dc:type
           rdf:resource="http://purl.org/dc/dcmitype/StillImage" />
        <dc:title></dc:title>
      </cc:Work>
    </rdf:RDF>
  </metadata>
  <defs
     id="defs32" />
  <sodipodi:namedview
     pagecolor="#ffffff"
     bordercolor="#666666"
     borderopacity="1"
     objecttolerance="10"
     gridtolerance="10"
     guidetolerance="10"
     inkscape:pageopacity="0"
     inkscape:pageshadow="2"
     inkscape:window-width="1920"
     inkscape:window-height="1024"
     id="namedview30"
     showgrid="false"
     inkscape:zoom="2.832058"
     inkscape:cx="-95.996221"
     inkscape:cy="-3.5467804"
     inkscape:window-x="0"
     inkscape:window-y="27"
     inkscape:window-maximized="1"
     inkscape:current-layer="svg28"
     showborder="false"
     inkscape:pagecheckerboard="false"
     fit-margin-top="0"
     fit-margin-left="0"
     fit-margin-right="0"
     fit-margin-bottom="0" />
  <path
     style="fill:#1b1817;fill-rule:evenodd;stroke-width:0.55249268"
     d="M 11.99945,0.59309196 C 5.3739581,0.59309196 0,5.965918 0,12.593625 c 0,5.30061 3.4384437,9.799215 8.2064555,11.386526 0.6005595,0.109946 0.8190317,-0.261235 0.8190317,-0.579471 0,-0.285086 -0.010111,-1.039437 -0.016188,-2.040554 -3.3370557,0.72487 -4.04118,-1.608919 -4.04118,-1.608919 C 4.4222563,18.36445 3.635446,17.995534 3.635446,17.995534 2.5459304,17.251879 3.717452,17.266072 3.717452,17.266072 c 1.204434,0.08508 1.8387674,1.237711 1.8387674,1.237711 1.0701783,1.833723 2.8084916,1.303187 3.491925,0.996001 C 9.1569855,18.724631 9.4674366,18.19626 9.8099821,17.896257 7.1453099,17.592938 4.3433267,16.56344 4.3433267,11.965596 c 0,-1.310513 0.4681437,-2.381315 1.235556,-3.219999 C 5.4551243,8.441726 5.0439814,7.221794 5.6975802,5.569841 c 0,0 1.0059234,-0.322871 3.298768,1.229081 0.9569173,-0.265749 1.9837258,-0.397524 3.0041798,-0.402496 1.019349,0.005 2.046156,0.136747 3.004179,0.402496 2.291187,-1.552504 3.296613,-1.229081 3.296613,-1.229081 0.654703,1.651953 0.242985,2.871885 0.119779,3.175756 0.76907,0.838684 1.233396,1.909486 1.233396,3.219999 0,4.609999 -2.805569,5.624259 -5.478528,5.920948 0.430391,0.37017 0.814711,1.103018 0.814711,2.222921 0,1.603334 -0.01508,2.897841 -0.01508,3.291215 0,0.320999 0.216129,0.694445 0.824424,0.577317 C 20.564711,22.387917 24,17.893682 24,12.593625 24,5.965918 18.627174,0.59309196 11.999472,0.59309196 Z"
     id="path841"
     inkscape:connector-curvature="0" />
</svg>
